<svg width="158" height="40" viewBox="0 0 158 40" fill="none" xmlns="http://www.w3.org/2000/svg">
<path d="M10.056 11.904L1.824 11.904L1.824 30H3.84L3.84 21.024H9.864V19.152H3.84L3.84 13.776L10.056 13.776V11.904ZM14.4849 11.904L14.4849 30H21.4929V28.128H16.5009L16.5009 11.904H14.4849ZM37.2609 30H39.4929L31.3569 11.04L23.0049 30H25.2129L27.3969 24.864L35.1249 24.864L37.2609 30ZM28.2129 22.992L31.3089 15.744L34.3329 22.992L28.2129 22.992ZM52.4822 14.4C51.4742 12.528 49.9142 11.592 47.8022 11.592C46.4102 11.592 45.2342 12 44.2742 12.84C43.2422 13.704 42.7382 14.832 42.7382 16.2C42.7382 17.376 43.1222 18.36 43.9142 19.152C44.4662 19.704 45.4022 20.28 46.6742 20.832L47.7782 21.312C48.8582 21.768 49.6262 22.2 50.0822 22.608C50.7782 23.208 51.1142 23.976 51.1142 24.912C51.1142 25.92 50.7542 26.76 50.0102 27.432C49.2662 28.104 48.4022 28.44 47.3942 28.44C45.4742 28.44 44.0342 27 43.7702 25.08L41.8022 25.632C42.3782 28.488 44.5622 30.312 47.4422 30.312C49.0502 30.312 50.3942 29.784 51.4742 28.704C52.5782 27.624 53.1302 26.304 53.1302 24.72C53.1302 23.4 52.6982 22.32 51.8342 21.48C51.2342 20.88 50.2022 20.256 48.7862 19.632L47.5862 19.104C46.7222 18.72 46.0982 18.384 45.7142 18.072C45.0662 17.568 44.7542 16.968 44.7542 16.272C44.7542 14.64 46.0982 13.464 47.7542 13.464C49.0742 13.464 50.1302 14.112 50.8742 15.432L52.4822 14.4ZM59.3844 11.904H57.3684L57.3684 30H59.3844L59.3844 21.12H68.6484V30H70.6644V11.904H68.6484V19.248H59.3844V11.904ZM104.714 30C106.322 30 107.594 29.856 108.554 29.592C109.73 29.256 110.834 28.632 111.866 27.72C113.834 25.968 114.818 23.736 114.818 20.976C114.818 18.096 113.81 15.792 111.818 14.088C110.834 13.248 109.73 12.648 108.506 12.312C107.522 12.048 106.274 11.904 104.762 11.904H101.354V30H104.714ZM103.37 13.776H104.834C107.186 13.776 109.082 14.376 110.498 15.576C112.034 16.848 112.802 18.648 112.802 20.952C112.802 23.232 112.034 25.032 110.498 26.328C109.058 27.528 107.162 28.128 104.834 28.128H103.37V13.776ZM128.203 30V28.128L120.835 28.128V21.024L127.987 21.024V19.152L120.835 19.152V13.776L128.203 13.776V11.904L118.819 11.904V30L128.203 30ZM145.416 30H147.648L139.512 11.04L131.16 30H133.368L135.552 24.864H143.28L145.416 30ZM136.368 22.992L139.464 15.744L142.488 22.992H136.368ZM150.821 11.904V30H157.829V28.128H152.837V11.904H150.821Z" fill="black"/>
<path d="M85.3333 35H83.6666L85.3333 23.3333H79.5C78.0333 23.3333 78.95 22.0833 78.9833 22.0333C81.1333 18.2333 84.3666 12.5667 88.6833 5H90.35L88.6833 16.6667H94.5333C95.2 16.6667 95.5666 16.9833 95.2 17.7667C88.6166 29.25 85.3333 35 85.3333 35Z" fill="black"/>
</svg>
