<svg width="24" height="24" viewBox="0 0 24 24" fill="none" xmlns="http://www.w3.org/2000/svg">
<path d="M23.5224 23.1624V6.70041C23.5224 6.67592 23.5224 6.64653 23.5175 6.62204C23.5175 6.61224 23.5175 6.60245 23.5126 6.59265C23.5126 6.57796 23.5077 6.56327 23.5077 6.54367C23.5077 6.53388 23.5028 6.51918 23.4979 6.50939C23.493 6.49469 23.493 6.4849 23.4882 6.4702C23.4833 6.46041 23.4833 6.44571 23.4784 6.43592C23.4735 6.42612 23.4686 6.41143 23.4637 6.40163C23.4588 6.39184 23.4539 6.37714 23.449 6.36735C23.4441 6.35265 23.4392 6.34286 23.4294 6.32816C23.4245 6.31347 23.4147 6.30367 23.4098 6.28898C23.4 6.26939 23.3902 6.25469 23.3755 6.2351C23.3706 6.22531 23.3657 6.22041 23.3559 6.21061C23.351 6.20082 23.3412 6.19102 23.3363 6.18122L18.7273 0.318367C18.5657 0.117551 18.3257 0 18.0661 0H5.93876C5.67917 0 5.43917 0.117551 5.27754 0.318367L0.663662 6.17633C0.653866 6.18612 0.648968 6.19592 0.64407 6.20571C0.639172 6.21551 0.634274 6.22041 0.624478 6.2302C0.614682 6.2498 0.599988 6.26449 0.590192 6.28408C0.585294 6.29878 0.575498 6.30857 0.5706 6.32327C0.565702 6.33796 0.555906 6.34775 0.551008 6.36245C0.54611 6.37224 0.541213 6.38694 0.536315 6.39673C0.531417 6.40653 0.526519 6.42122 0.521621 6.43102C0.516723 6.44082 0.511825 6.45551 0.511825 6.46531C0.506927 6.48 0.506927 6.4898 0.502029 6.50449C0.497131 6.51429 0.497131 6.52898 0.492233 6.53878C0.487335 6.55347 0.487335 6.56816 0.487335 6.58776C0.487335 6.59755 0.482437 6.60735 0.482437 6.61714C0.482437 6.64163 0.477539 6.67102 0.477539 6.69551V23.1576C0.477539 23.6229 0.854682 24 1.31509 24H22.6751C23.1453 24 23.5224 23.6229 23.5224 23.1624ZM20.951 5.85796H12.84V1.68H17.6547L20.951 5.85796ZM6.34529 1.68H11.16V5.85796H3.05387L6.34529 1.68ZM2.16244 22.32V7.53796H21.8424V22.32H2.16244Z" fill="white"/>
</svg>
