<svg width="7" height="5" viewBox="0 0 7 5" fill="none" xmlns="http://www.w3.org/2000/svg">
<path d="M6.62482 0.731306C6.50771 0.614899 6.34931 0.549561 6.18419 0.549561C6.01907 0.549561 5.86067 0.614899 5.74357 0.731306L3.49982 2.94381L1.28732 0.731306C1.17021 0.614899 1.01181 0.549561 0.84669 0.549561C0.681574 0.549561 0.523167 0.614899 0.406065 0.731306C0.347485 0.789408 0.300989 0.858533 0.269258 0.934695C0.237528 1.01086 0.221191 1.09255 0.221191 1.17506C0.221191 1.25756 0.237528 1.33925 0.269258 1.41542C0.300989 1.49158 0.347485 1.5607 0.406065 1.61881L3.05607 4.26881C3.11417 4.32739 3.18329 4.37388 3.25945 4.40561C3.33562 4.43734 3.41731 4.45368 3.49982 4.45368C3.58232 4.45368 3.66401 4.43734 3.74018 4.40561C3.81634 4.37388 3.88546 4.32739 3.94357 4.26881L6.62482 1.61881C6.6834 1.5607 6.72989 1.49158 6.76162 1.41542C6.79335 1.33925 6.80969 1.25756 6.80969 1.17506C6.80969 1.09255 6.79335 1.01086 6.76162 0.934695C6.72989 0.858533 6.6834 0.789408 6.62482 0.731306Z" fill="#555555"/>
</svg>
