<svg width="200" height="200" viewBox="0 0 200 200" fill="none" xmlns="http://www.w3.org/2000/svg">
<mask id="mask0" mask-type="alpha" maskUnits="userSpaceOnUse" x="16" y="16" width="168" height="168">
<path fill-rule="evenodd" clip-rule="evenodd" d="M158.333 16.6667H41.6667C27.5 16.6667 16.6667 27.5 16.6667 41.6667V158.333C16.6667 172.5 27.5 183.333 41.6667 183.333H158.333C172.5 183.333 183.333 172.5 183.333 158.333V41.6667C183.333 27.5 172.5 16.6667 158.333 16.6667ZM33.3333 41.6667C33.3333 36.6667 36.6667 33.3333 41.6667 33.3333H158.333C163.333 33.3333 166.667 36.6667 166.667 41.6667V105L139.167 77.5C135.833 74.1667 130.833 74.1667 127.5 77.5L39.1667 165.833C35.8333 165 33.3333 161.667 33.3333 158.333V41.6667ZM61.6667 166.667H158.333C163.333 166.667 166.667 163.333 166.667 158.333V128.333L133.333 95L61.6667 166.667ZM70.8333 91.6667C82.5 91.6667 91.6667 82.5 91.6667 70.8333C91.6667 59.1667 82.5 50 70.8333 50C59.1667 50 50 59.1667 50 70.8333C50 82.5 59.1667 91.6667 70.8333 91.6667ZM75 70.8333C75 68.3333 73.3333 66.6667 70.8333 66.6667C68.3333 66.6667 66.6667 68.3333 66.6667 70.8333C66.6667 73.3333 68.3333 75 70.8333 75C73.3333 75 75 73.3333 75 70.8333Z" fill="white"/>
</mask>
<g mask="url(#mask0)">
<rect width="200" height="200" fill="#BDBDBD"/>
</g>
</svg>
