<svg width="55" height="55" viewBox="0 0 55 55" fill="none" xmlns="http://www.w3.org/2000/svg">
<circle cx="27.5" cy="27.5" r="27.5" fill="#7367E0" fill-opacity="0.1"/>
<path d="M17.75 29.9375C16.4094 29.9375 15.3125 28.8406 15.3125 27.5V23.8438H20.1875V27.5C20.1875 28.8406 19.0906 29.9375 17.75 29.9375ZM22.625 29.9375C21.2844 29.9375 20.1875 28.8406 20.1875 27.5V23.8438H25.0625V27.5C25.0625 28.8406 23.9656 29.9375 22.625 29.9375ZM27.5 29.9375C26.1594 29.9375 25.0625 28.8406 25.0625 27.5V23.8438H29.9375V27.5C29.9375 28.8406 28.8406 29.9375 27.5 29.9375ZM32.375 29.9375C31.0344 29.9375 29.9375 28.8406 29.9375 27.5V23.8438H34.8125V27.5C34.8125 28.8406 33.7156 29.9375 32.375 29.9375ZM37.25 29.9375C35.9094 29.9375 34.8125 28.8406 34.8125 27.5V23.8438H39.6875V27.5C39.6875 28.8406 38.5906 29.9375 37.25 29.9375Z" fill="#7367E0"/>
<path d="M20.1875 23.8438H34.8125" stroke="#7367E0" stroke-width="2" stroke-miterlimit="10" stroke-linejoin="round"/>
<path d="M34.8125 29.3281C34.2641 30.0594 33.35 30.5469 32.375 30.5469C31.4 30.5469 30.4859 30.0594 29.9375 29.3281C29.3891 30.0594 28.475 30.5469 27.5 30.5469C26.525 30.5469 25.6109 30.0594 25.0625 29.3281C24.5141 30.0594 23.6 30.5469 22.625 30.5469C21.65 30.5469 20.7359 30.0594 20.1875 29.3281C19.6391 30.0594 18.725 30.5469 17.75 30.5469V38.4688C17.75 39.1391 18.2984 39.6875 18.9688 39.6875H36.0312C36.7016 39.6875 37.25 39.1391 37.25 38.4688V30.5469C36.275 30.5469 35.3609 30.0594 34.8125 29.3281ZM24.4531 39.0781H20.7969V33.5938C20.7969 33.2281 21.0406 32.9844 21.4062 32.9844H24.4531V39.0781ZM29.3281 39.0781H25.6719V32.9844H29.3281V39.0781ZM34.2031 39.0781H30.5469V32.9844H33.5938C33.9594 32.9844 34.2031 33.2281 34.2031 33.5938V39.0781ZM39.6875 23.8438H15.3125L18.0547 16.7141C18.2375 16.2266 18.6641 15.9219 19.2125 15.9219H35.8484C36.3359 15.9219 36.8234 16.2266 37.0062 16.7141L39.6875 23.8438Z" fill="#7367E0"/>
</svg>
