<svg width="36" height="36" viewBox="0 0 36 36" fill="none" xmlns="http://www.w3.org/2000/svg">
<circle cx="18" cy="18" r="18" fill="black" fill-opacity="0.1"/>
<path d="M18 11.4942C18 11.871 17.9258 12.2441 17.7816 12.5922C17.6374 12.9403 17.426 13.2566 17.1596 13.523C16.8932 13.7894 16.5769 14.0008 16.2288 14.145C15.8807 14.2892 15.5076 14.3634 15.1308 14.3634C14.3698 14.3634 13.64 14.0611 13.102 13.523C12.5639 12.9849 12.2616 12.2551 12.2616 11.4942C12.2616 10.7332 12.5639 10.0034 13.102 9.46537C13.64 8.92729 14.3698 8.625 15.1308 8.625C15.5076 8.62499 15.8807 8.6992 16.2288 8.84339C16.5769 8.98758 16.8932 9.19892 17.1596 9.46535C17.426 9.73178 17.6374 10.0481 17.7816 10.3962C17.9258 10.7443 18 11.1174 18 11.4942Z" fill="#F0F0F0"/>
<path d="M23.7383 11.4942C23.7383 12.2551 23.436 12.9849 22.898 13.523C22.3599 14.0611 21.6301 14.3634 20.8692 14.3634C20.1082 14.3634 19.3784 14.0611 18.8404 13.523C18.3023 12.9849 18 12.2551 18 11.4942C18 10.7332 18.3023 10.0034 18.8404 9.46537C19.3784 8.92729 20.1082 8.625 20.8692 8.625C21.6301 8.625 22.3599 8.92729 22.898 9.46537C23.436 10.0034 23.7383 10.7332 23.7383 11.4942Z" fill="#F0F0F0"/>
<path d="M17.9999 10.373C17.1228 10.373 16.4167 11.0792 16.4167 11.9563V12.4156H19.5831V11.9563C19.5831 11.0792 18.877 10.373 17.9999 10.373ZM10.1875 17.1406V25.8123C10.1875 26.678 10.8843 27.3748 11.75 27.3748H24.2499C25.1155 27.3748 25.8123 26.678 25.8123 25.8123V17.1406H10.1875Z" fill="#666666"/>
<path d="M10.1875 12.1904H25.8123C26.6779 12.1904 27.3748 12.8873 27.3748 13.7529V15.6955C27.3748 16.5611 26.6779 17.258 25.8123 17.258H10.1875C9.32186 17.258 8.625 16.5611 8.625 15.6955V13.7529C8.625 12.8873 9.32186 12.1904 10.1875 12.1904Z" fill="#BDBDBD"/>
<path d="M16.4167 12.9326V27.3752H19.5832V12.9326H16.4167Z" fill="white"/>
<path d="M16.4167 12.1904V17.2581H19.5832V12.1904H16.4167Z" fill="white"/>
</svg>
