<svg width="109" height="109" viewBox="0 0 109 109" fill="none" xmlns="http://www.w3.org/2000/svg">
<path d="M35.6341 66.9641C40.2844 66.9641 44.0654 63.1755 44.0654 58.5264C44.0654 53.8747 40.2844 50.0889 35.6341 50.0889C30.9869 50.0889 27.2059 53.8747 27.2059 58.5264C27.2057 63.1755 30.9867 66.9641 35.6341 66.9641ZM35.6341 53.7131C38.2877 53.7131 40.446 55.8714 40.446 58.5264C40.446 61.1817 38.2877 63.3398 35.6341 63.3398C32.9819 63.3398 30.8253 61.1815 30.8253 58.5264C30.8253 55.8714 32.9819 53.7131 35.6341 53.7131ZM32.4884 92.0528C32.4884 92.885 33.1639 93.5743 33.9944 93.5901H92.068C92.9065 93.5841 93.5895 92.8975 93.5895 92.0528C93.5895 91.6089 93.4047 91.2857 93.2512 91.0963L92.7918 90.5249L92.7977 90.5125L70.5285 62.5449C69.9522 61.7531 68.6683 61.7374 68.072 62.4985L56.3475 77.2184L51.3369 70.9328C51.0295 70.5321 50.5854 70.3086 50.1023 70.3086C49.6071 70.3086 49.1569 70.5385 48.8665 70.9392L32.9074 91.0005C32.5876 91.4318 32.4884 91.7362 32.4884 92.0528ZM50.1055 75.1904L56.3492 83.0224L69.2833 66.7869L87.739 89.969H38.3529L50.1055 75.1904Z" fill="#999999"/>
<path d="M100.71 38.3007L99.9293 38.2883L88.4516 6.75561C87.7714 4.87983 85.975 3.62207 83.9811 3.62207C83.4267 3.62207 82.8789 3.7217 82.3539 3.91075L6.75498 31.4284C5.56088 31.8631 4.60905 32.7357 4.07022 33.8877C3.5348 35.0398 3.47881 36.3319 3.91183 37.5243L15.4145 69.3269V100.618C15.4145 103.245 17.5479 105.381 20.1722 105.381H100.624C103.248 105.381 105.381 103.245 105.381 100.618V43.055C105.381 40.4837 103.286 38.3535 100.71 38.3007ZM15.4143 43.055V58.5451L6.92402 35.217L84.6598 6.92315L96.0833 38.2975H20.172C17.5477 38.2975 15.4143 40.4341 15.4143 43.055ZM101.762 101.754H19.0339V41.9185H101.762V101.754Z" fill="#999999"/>
</svg>
