<svg width="35" height="20" viewBox="0 0 35 20" fill="none" xmlns="http://www.w3.org/2000/svg">
<path d="M0.152356 16.1468C0.152331 16.1198 0.16277 16.0938 0.181496 16.0743C0.200222 16.0547 0.225783 16.0432 0.252848 16.042H1.50448C2.02301 16.042 2.52029 16.2475 2.88695 16.6134C3.2536 16.9793 3.45959 17.4755 3.45959 17.9929C3.45959 18.5103 3.2536 19.0066 2.88695 19.3724C2.52029 19.7383 2.02301 19.9438 1.50448 19.9438H0.252848C0.225517 19.9427 0.199729 19.9309 0.180962 19.911C0.162195 19.8912 0.151934 19.8648 0.152356 19.8375V16.1468ZM1.45423 19.5579C2.36783 19.5579 3.01344 18.9061 3.01344 17.9868C3.0231 17.7795 2.98946 17.5724 2.91466 17.3786C2.83987 17.1849 2.72554 17.0088 2.57894 16.8616C2.43233 16.7143 2.25665 16.599 2.06304 16.523C1.86943 16.4471 1.66211 16.4121 1.45423 16.4203H0.578701V19.5579H1.45423Z" fill="white"/>
<path d="M8.6172 16.1468C8.6172 16.119 8.62827 16.0924 8.64797 16.0727C8.66767 16.053 8.6944 16.042 8.72226 16.042H10.924C10.9519 16.042 10.9786 16.053 10.9983 16.0727C11.018 16.0924 11.0291 16.119 11.0291 16.1468V16.3094C11.0291 16.3372 11.018 16.3639 10.9983 16.3835C10.9786 16.4032 10.9519 16.4142 10.924 16.4142H9.04659V17.7817H10.65C10.6777 17.7825 10.7042 17.7937 10.724 17.8132C10.7438 17.8326 10.7554 17.8589 10.7565 17.8866V18.0491C10.7565 18.063 10.7538 18.0768 10.7484 18.0896C10.743 18.1024 10.7351 18.1141 10.7252 18.1238C10.7153 18.1336 10.7036 18.1413 10.6906 18.1464C10.6777 18.1516 10.6639 18.1542 10.65 18.154H9.04659V19.5761H10.924C10.938 19.5761 10.9518 19.5789 10.9646 19.5843C10.9774 19.5896 10.9891 19.5975 10.9989 19.6074C11.0086 19.6173 11.0164 19.629 11.0215 19.6419C11.0267 19.6548 11.0293 19.6686 11.0291 19.6825V19.8436C11.0293 19.8575 11.0267 19.8712 11.0215 19.8841C11.0164 19.897 11.0086 19.9088 10.9989 19.9187C10.9891 19.9286 10.9774 19.9364 10.9646 19.9418C10.9518 19.9472 10.938 19.9499 10.924 19.9499H8.72226C8.70834 19.9499 8.69455 19.9472 8.6817 19.9418C8.66885 19.9364 8.6572 19.9286 8.64743 19.9187C8.63765 19.9088 8.62994 19.897 8.62475 19.8841C8.61956 19.8712 8.617 19.8575 8.6172 19.8436V16.1468Z" fill="white"/>
<path d="M15.5312 16.0548C15.5324 16.0275 15.5442 16.0018 15.5641 15.9831C15.584 15.9643 15.6105 15.9541 15.6378 15.9545H15.7216C15.7392 15.9529 15.7569 15.9561 15.7727 15.9639C15.7886 15.9717 15.802 15.9837 15.8114 15.9986L18.2964 19.0875H18.3086V16.1156C18.3086 16.0878 18.3197 16.0611 18.3394 16.0414C18.3591 16.0218 18.3858 16.0107 18.4137 16.0107H18.6101C18.6377 16.0118 18.664 16.0232 18.6837 16.0426C18.7034 16.062 18.7152 16.088 18.7167 16.1156V19.867C18.7155 19.8943 18.7037 19.92 18.6838 19.9387C18.6639 19.9575 18.6374 19.9677 18.6101 19.9673H18.5644C18.547 19.9688 18.5296 19.9655 18.514 19.9577C18.4984 19.9499 18.4853 19.938 18.4761 19.9232L15.9469 16.7811V19.8199C15.9469 19.8481 15.9357 19.8752 15.9157 19.8951C15.8957 19.915 15.8686 19.9263 15.8404 19.9263H15.6424C15.6144 19.9255 15.5877 19.914 15.5679 19.8942C15.5481 19.8745 15.5366 19.8479 15.5358 19.8199L15.5312 16.0548Z" fill="white"/>
<path d="M25.0312 16.1468C25.0324 16.1194 25.0438 16.0934 25.0633 16.0739C25.0827 16.0545 25.1088 16.0431 25.1363 16.042H25.3601C25.3879 16.0427 25.4144 16.054 25.4342 16.0734C25.4539 16.0929 25.4656 16.1191 25.4667 16.1468V19.8375C25.466 19.8655 25.4545 19.8921 25.4347 19.9118C25.4148 19.9316 25.3882 19.9431 25.3601 19.9438H25.1363C25.1086 19.9427 25.0823 19.9311 25.0628 19.9113C25.0433 19.8916 25.032 19.8652 25.0312 19.8375V16.1468Z" fill="white"/>
<path d="M31.4894 16.0628C31.4961 16.0409 31.5096 16.0216 31.5279 16.0077C31.5462 15.9938 31.5684 15.986 31.5914 15.9854H31.6797C31.6998 15.9856 31.7194 15.9914 31.7364 16.0022C31.7533 16.0129 31.7669 16.0281 31.7757 16.0461L32.8811 19.1184H32.9085L33.9927 16.0522C34.0009 16.0341 34.0141 16.0187 34.0309 16.0079C34.0476 15.9971 34.0671 15.9914 34.0871 15.9914H34.1769C34.1996 15.9923 34.2215 16.0003 34.2395 16.0142C34.2576 16.0281 34.2708 16.0472 34.2774 16.0689L34.9915 19.8097C35.0083 19.8872 34.9748 19.9434 34.891 19.9434H34.6672C34.6445 19.9416 34.6229 19.9331 34.605 19.919C34.5871 19.905 34.5738 19.886 34.5667 19.8644L34.0779 16.9942H34.0551L33.0273 19.9373C33.0184 19.9549 33.005 19.9698 32.9884 19.9805C32.9718 19.9912 32.9526 19.9973 32.9329 19.9981H32.8309C32.8113 19.9968 32.7923 19.9906 32.7758 19.9799C32.7593 19.9693 32.7457 19.9546 32.7365 19.9373L31.698 16.9942H31.6752L31.1849 19.8644C31.1785 19.8864 31.1654 19.9059 31.1474 19.9201C31.1293 19.9342 31.1073 19.9424 31.0844 19.9434H30.8605C30.7768 19.9434 30.7433 19.8872 30.76 19.8097L31.4894 16.0628Z" fill="white"/>
<path d="M0.171875 0H5.82706V1.93877H2.3097V5.72058H5.06877V7.65935H2.3097V13.5744H0.177967L0.171875 0Z" fill="white"/>
<path d="M6.85742 0H12.6877V1.93877H8.99524V5.5261H11.9309V7.46638H8.99524V11.6356H12.6877V13.5744H6.85742V0Z" fill="white"/>
<path d="M20.3062 13.5744H18.1486L16.7493 3.04338H16.7097L15.3104 13.5744H13.3477L15.4078 0H18.2415L20.3062 13.5744Z" fill="white"/>
<path d="M21.3359 0H27.1662V1.93877H23.4738V5.5261H26.4079V7.46638H23.4738V11.6356H27.1662V13.5744H21.3359V0Z" fill="white"/>
<path d="M28.3906 0H31.5593C32.6607 0 33.4636 0.253235 33.9682 0.759705C34.4727 1.26618 34.7264 2.05171 34.7295 3.11631V3.94895C34.7295 5.35896 34.263 6.25136 33.3302 6.62615V6.66413C33.573 6.73017 33.7978 6.84998 33.9879 7.01465C34.178 7.17932 34.3284 7.38462 34.428 7.61529C34.6432 8.09441 34.7503 8.73408 34.7493 9.5343V11.9198C34.7458 12.2337 34.7585 12.5476 34.7873 12.8603C34.8148 13.105 34.8806 13.3439 34.9822 13.5683H32.8048C32.7329 13.3675 32.6819 13.1597 32.6526 12.9484C32.6204 12.6004 32.6077 12.2509 32.6145 11.9015V9.4249C32.6145 8.80397 32.513 8.37094 32.31 8.1258C32.1069 7.88067 31.7603 7.7576 31.27 7.75659H30.5315V13.5744H28.3998L28.3906 0ZM31.3065 5.81782C31.7329 5.81782 32.0542 5.70843 32.2673 5.48811C32.4805 5.2678 32.5886 4.9001 32.5886 4.38198V3.33511C32.5886 2.84383 32.5013 2.4893 32.3267 2.27152C32.1521 2.05374 31.8765 1.94383 31.4999 1.94181H30.5284V5.82086L31.3065 5.81782Z" fill="white"/>
</svg>
