<svg width="55" height="55" viewBox="0 0 55 55" fill="none" xmlns="http://www.w3.org/2000/svg">
<circle cx="27.5" cy="27.5" r="27.5" fill="#7367E0" fill-opacity="0.1"/>
<path d="M25.083 16.668C23.7581 16.668 22.5841 18.0014 22.4333 19.3177L21.9778 23.2923H19.7835C19.1211 23.2923 18.4587 23.9547 18.4587 24.6172L17.1338 37.8659C17.1338 38.5283 17.7962 39.1907 18.4587 39.1907H35.682C36.3444 39.1907 37.0068 38.5283 37.0068 37.8659L35.682 24.6172C35.682 23.9547 35.0195 23.2923 34.3571 23.2923H32.1628L31.7074 19.3177C31.5565 18.0014 30.3825 16.668 29.0576 16.668H25.083ZM25.083 17.9928H29.0576C29.7201 17.9928 30.3071 18.6596 30.3825 19.3177L30.8379 23.2923H23.3027L23.7581 19.3177C23.8335 18.6596 24.4206 17.9928 25.083 17.9928Z" fill="#7367E0"/>
<circle cx="34" cy="37" r="5" fill="white"/>
<path d="M36.6 37.07C36.6 37.6567 36.49 38.18 36.27 38.64C36.05 39.0933 35.75 39.45 35.37 39.71C34.99 39.97 34.5567 40.1 34.07 40.1C33.5833 40.1 33.15 39.97 32.77 39.71C32.39 39.45 32.09 39.0933 31.87 38.64C31.65 38.18 31.54 37.6567 31.54 37.07C31.54 36.4833 31.65 35.9633 31.87 35.51C32.09 35.05 32.39 34.69 32.77 34.43C33.15 34.1633 33.5833 34.03 34.07 34.03C34.5567 34.03 34.99 34.1633 35.37 34.43C35.75 34.69 36.05 35.05 36.27 35.51C36.49 35.9633 36.6 36.4833 36.6 37.07ZM35.71 37.07C35.71 36.63 35.64 36.2433 35.5 35.91C35.36 35.5767 35.1667 35.3167 34.92 35.13C34.6733 34.9433 34.39 34.85 34.07 34.85C33.7433 34.85 33.4567 34.9433 33.21 35.13C32.9633 35.3167 32.77 35.5767 32.63 35.91C32.49 36.2433 32.42 36.63 32.42 37.07C32.42 37.51 32.49 37.8967 32.63 38.23C32.77 38.5567 32.9633 38.8133 33.21 39C33.4567 39.1867 33.7433 39.28 34.07 39.28C34.39 39.28 34.6733 39.1867 34.92 39C35.1667 38.8133 35.36 38.5567 35.5 38.23C35.64 37.8967 35.71 37.51 35.71 37.07Z" fill="#7367E0"/>
</svg>
