<svg width="36" height="36" viewBox="0 0 36 36" fill="none" xmlns="http://www.w3.org/2000/svg">
<circle cx="18" cy="18" r="18" fill="black" fill-opacity="0.1"/>
<path d="M23.625 12.3188C23.611 12.1629 23.5389 12.0181 23.4232 11.9127C23.3075 11.8074 23.1565 11.7494 23 11.75H13C12.8436 11.7494 12.6926 11.8074 12.5769 11.9127C12.4611 12.0181 12.3891 12.1629 12.375 12.3188L11.25 24.7063C11.2265 24.9663 11.2576 25.2284 11.3413 25.4757C11.4249 25.723 11.5593 25.9502 11.7358 26.1426C11.9123 26.335 12.1271 26.4884 12.3663 26.593C12.6055 26.6976 12.8639 26.7511 13.125 26.75H22.8813C23.1424 26.7511 23.4008 26.6976 23.6401 26.593C23.8793 26.4884 24.094 26.335 24.2705 26.1426C24.447 25.9502 24.5814 25.723 24.6651 25.4757C24.7487 25.2284 24.7798 24.9663 24.7563 24.7063L23.625 12.3188ZM14.875 14.875C14.7514 14.875 14.6306 14.8383 14.5278 14.7697C14.425 14.701 14.3449 14.6034 14.2976 14.4892C14.2503 14.375 14.2379 14.2493 14.2621 14.1281C14.2862 14.0068 14.3457 13.8955 14.4331 13.8081C14.5205 13.7207 14.6319 13.6611 14.7531 13.637C14.8743 13.6129 15 13.6253 15.1142 13.6726C15.2284 13.7199 15.326 13.8 15.3947 13.9028C15.4634 14.0056 15.5 14.1264 15.5 14.25C15.5 14.4158 15.4342 14.5747 15.317 14.6919C15.1998 14.8092 15.0408 14.875 14.875 14.875ZM21.125 14.875C21.0014 14.875 20.8806 14.8383 20.7778 14.7697C20.675 14.701 20.5949 14.6034 20.5476 14.4892C20.5003 14.375 20.4879 14.2493 20.5121 14.1281C20.5362 14.0068 20.5957 13.8955 20.6831 13.8081C20.7705 13.7207 20.8819 13.6611 21.0031 13.637C21.1243 13.6129 21.25 13.6253 21.3642 13.6726C21.4784 13.7199 21.576 13.8 21.6447 13.9028C21.7134 14.0056 21.75 14.1264 21.75 14.25C21.75 14.4158 21.6842 14.5747 21.567 14.6919C21.4498 14.8092 21.2908 14.875 21.125 14.875Z" fill="#999999"/>
<path d="M21.75 12.9997V14.2497C21.75 14.0839 21.6842 13.9249 21.567 13.8077C21.4497 13.6905 21.2908 13.6247 21.125 13.6247C20.9593 13.6247 20.8003 13.6905 20.6831 13.8077C20.5659 13.9249 20.5 14.0839 20.5 14.2497V12.9997C20.5 12.3366 20.2366 11.7007 19.7678 11.2319C19.2989 10.7631 18.6631 10.4997 18 10.4997C17.337 10.4997 16.7011 10.7631 16.2322 11.2319C15.7634 11.7007 15.5 12.3366 15.5 12.9997V14.2497C15.5 14.0839 15.4342 13.9249 15.317 13.8077C15.1997 13.6905 15.0408 13.6247 14.875 13.6247C14.7093 13.6247 14.5503 13.6905 14.4331 13.8077C14.3159 13.9249 14.25 14.0839 14.25 14.2497V12.9997C14.2489 12.5734 14.3229 12.1502 14.4688 11.7497C14.729 11.0215 15.208 10.3916 15.8402 9.94617C16.4723 9.50078 17.2267 9.26172 18 9.26172C18.7733 9.26172 19.5277 9.50078 20.1599 9.94617C20.792 10.3916 21.271 11.0215 21.5313 11.7497C21.6771 12.1502 21.7512 12.5734 21.75 12.9997Z" fill="#999999"/>
</svg>
