<svg width="87" height="87" viewBox="0 0 87 87" fill="none" xmlns="http://www.w3.org/2000/svg">
<path d="M28.4419 53.4482C32.1537 53.4482 35.1715 50.4243 35.1715 46.7135C35.1715 43.0007 32.1537 39.979 28.4419 39.979C24.7327 39.979 21.7148 43.0007 21.7148 46.7135C21.7147 50.4243 24.7325 53.4482 28.4419 53.4482ZM28.4419 42.8718C30.56 42.8718 32.2826 44.5944 32.2826 46.7135C32.2826 48.8329 30.56 50.5554 28.4419 50.5554C26.325 50.5554 24.6037 48.8328 24.6037 46.7135C24.6037 44.5944 26.325 42.8718 28.4419 42.8718ZM25.9311 73.4731C25.9311 74.1374 26.4703 74.6876 27.1331 74.7001H73.4855C74.1548 74.6954 74.6999 74.1474 74.6999 73.4731C74.6999 73.1189 74.5524 72.8609 74.4299 72.7097L74.0632 72.2536L74.0679 72.2438L56.2934 49.921C55.8335 49.289 54.8087 49.2764 54.3327 49.8839L44.9746 61.6328L40.9753 56.6159C40.73 56.2961 40.3755 56.1177 39.9899 56.1177C39.5947 56.1177 39.2353 56.3012 39.0035 56.621L26.2655 72.6332C26.0103 72.9775 25.9311 73.2205 25.9311 73.4731ZM39.9925 60.0141L44.976 66.2654L55.2996 53.3068L70.0303 71.8099H30.612L39.9925 60.0141Z" fill="#5145C0" fill-opacity="0.5"/>
<path d="M80.3836 30.5702L79.7601 30.5604L70.599 5.39207C70.0561 3.89489 68.6223 2.89099 67.0308 2.89099C66.5883 2.89099 66.1511 2.97051 65.7321 3.12141L5.3916 25.085C4.43851 25.432 3.67879 26.1285 3.24872 27.0479C2.82136 27.9676 2.77667 28.9988 3.12229 29.9505L12.3033 55.3343V80.3094C12.3033 82.4063 14.0061 84.1116 16.1008 84.1116H80.3142C82.4087 84.1116 84.1117 82.4063 84.1117 80.3094V34.3649C84.1113 32.3126 82.4395 30.6124 80.3836 30.5702ZM12.3032 34.3649V46.7286L5.52652 28.1089L67.5725 5.5258L76.6903 30.5677H16.1006C14.006 30.5677 12.3032 32.273 12.3032 34.3649ZM81.2226 81.2168H15.1922V33.4579H81.2226V81.2168Z" fill="#5145C0" fill-opacity="0.5"/>
</svg>
