<svg width="97" height="84" viewBox="0 0 97 84" fill="none" xmlns="http://www.w3.org/2000/svg">
<path d="M19.6622 0H3.93243C1.65424 0 0 1.65637 0 3.9375V80.0625C0 82.3436 1.65424 84 3.93243 84H93.0676C95.3458 84 97 82.3436 97 80.0625V3.9375C97 1.65637 95.3458 0 93.0676 0H19.6622ZM2.62162 80.0625V3.9375C2.62162 3.11588 3.11186 2.625 3.93243 2.625H18.3514V81.375H3.93243C3.11186 81.375 2.62162 80.8841 2.62162 80.0625ZM20.973 81.375V2.625H76.027V81.375H20.973ZM94.3784 3.9375V80.0625C94.3784 80.8841 93.8881 81.375 93.0676 81.375H78.6487V2.625H93.0676C93.8881 2.625 94.3784 3.11588 94.3784 3.9375Z" fill="#5145C0" fill-opacity="0.5"/>
<path d="M38.7398 26.4705C38.5421 26.3388 38.3124 26.2632 38.0751 26.2516C37.8379 26.2401 37.602 26.293 37.3923 26.4049C37.184 26.5178 37.0099 26.685 36.8886 26.8887C36.7672 27.0925 36.7031 27.3253 36.7028 27.5625V59.0625C36.703 59.2999 36.7674 59.5328 36.8893 59.7365C37.0112 59.9401 37.1859 60.1069 37.395 60.2189C37.604 60.331 37.8395 60.3842 38.0763 60.3728C38.3131 60.3615 38.5425 60.286 38.7398 60.1545L62.3344 44.4045C62.5134 44.2842 62.6601 44.1217 62.7615 43.9313C62.8629 43.7408 62.916 43.5283 62.916 43.3125C62.916 43.0967 62.8629 42.8842 62.7615 42.6937C62.6601 42.5033 62.5134 42.3408 62.3344 42.2205L38.7398 26.4705ZM39.3245 56.6107V30.0142L59.2462 43.3125L39.3245 56.6107ZM13.1083 21H7.86501C7.51736 21 7.18395 21.1383 6.93813 21.3844C6.6923 21.6306 6.5542 21.9644 6.5542 22.3125C6.5542 22.6606 6.6923 22.9944 6.93813 23.2406C7.18395 23.4867 7.51736 23.625 7.86501 23.625H13.1083C13.4559 23.625 13.7893 23.4867 14.0351 23.2406C14.281 22.9944 14.4191 22.6606 14.4191 22.3125C14.4191 21.9644 14.281 21.6306 14.0351 21.3844C13.7893 21.1383 13.4559 21 13.1083 21ZM7.86501 13.125H13.1083C13.4559 13.125 13.7893 12.9867 14.0351 12.7406C14.281 12.4944 14.4191 12.1606 14.4191 11.8125C14.4191 11.4644 14.281 11.1306 14.0351 10.8844C13.7893 10.6383 13.4559 10.5 13.1083 10.5H7.86501C7.51736 10.5 7.18395 10.6383 6.93813 10.8844C6.6923 11.1306 6.5542 11.4644 6.5542 11.8125C6.5542 12.1606 6.6923 12.4944 6.93813 12.7406C7.18395 12.9867 7.51736 13.125 7.86501 13.125ZM13.1083 31.5H7.86501C7.51736 31.5 7.18395 31.6383 6.93813 31.8844C6.6923 32.1306 6.5542 32.4644 6.5542 32.8125C6.5542 33.1606 6.6923 33.4944 6.93813 33.7406C7.18395 33.9867 7.51736 34.125 7.86501 34.125H13.1083C13.4559 34.125 13.7893 33.9867 14.0351 33.7406C14.281 33.4944 14.4191 33.1606 14.4191 32.8125C14.4191 32.4644 14.281 32.1306 14.0351 31.8844C13.7893 31.6383 13.4559 31.5 13.1083 31.5ZM13.1083 42H7.86501C7.51736 42 7.18395 42.1383 6.93813 42.3844C6.6923 42.6306 6.5542 42.9644 6.5542 43.3125C6.5542 43.6606 6.6923 43.9944 6.93813 44.2406C7.18395 44.4867 7.51736 44.625 7.86501 44.625H13.1083C13.4559 44.625 13.7893 44.4867 14.0351 44.2406C14.281 43.9944 14.4191 43.6606 14.4191 43.3125C14.4191 42.9644 14.281 42.6306 14.0351 42.3844C13.7893 42.1383 13.4559 42 13.1083 42ZM13.1083 52.5H7.86501C7.51736 52.5 7.18395 52.6383 6.93813 52.8844C6.6923 53.1306 6.5542 53.4644 6.5542 53.8125C6.5542 54.1606 6.6923 54.4944 6.93813 54.7406C7.18395 54.9867 7.51736 55.125 7.86501 55.125H13.1083C13.4559 55.125 13.7893 54.9867 14.0351 54.7406C14.281 54.4944 14.4191 54.1606 14.4191 53.8125C14.4191 53.4644 14.281 53.1306 14.0351 52.8844C13.7893 52.6383 13.4559 52.5 13.1083 52.5ZM13.1083 63H7.86501C7.51736 63 7.18395 63.1383 6.93813 63.3844C6.6923 63.6306 6.5542 63.9644 6.5542 64.3125C6.5542 64.6606 6.6923 64.9944 6.93813 65.2406C7.18395 65.4867 7.51736 65.625 7.86501 65.625H13.1083C13.4559 65.625 13.7893 65.4867 14.0351 65.2406C14.281 64.9944 14.4191 64.6606 14.4191 64.3125C14.4191 63.9644 14.281 63.6306 14.0351 63.3844C13.7893 63.1383 13.4559 63 13.1083 63ZM13.1083 73.5H7.86501C7.51736 73.5 7.18395 73.6383 6.93813 73.8844C6.6923 74.1306 6.5542 74.4644 6.5542 74.8125C6.5542 75.1606 6.6923 75.4944 6.93813 75.7406C7.18395 75.9867 7.51736 76.125 7.86501 76.125H13.1083C13.4559 76.125 13.7893 75.9867 14.0351 75.7406C14.281 75.4944 14.4191 75.1606 14.4191 74.8125C14.4191 74.4644 14.281 74.1306 14.0351 73.8844C13.7893 73.6383 13.4559 73.5 13.1083 73.5ZM83.892 23.625H89.1353C89.4829 23.625 89.8163 23.4867 90.0622 23.2406C90.308 22.9944 90.4461 22.6606 90.4461 22.3125C90.4461 21.9644 90.308 21.6306 90.0622 21.3844C89.8163 21.1383 89.4829 21 89.1353 21H83.892C83.5444 21 83.211 21.1383 82.9651 21.3844C82.7193 21.6306 82.5812 21.9644 82.5812 22.3125C82.5812 22.6606 82.7193 22.9944 82.9651 23.2406C83.211 23.4867 83.5444 23.625 83.892 23.625ZM83.892 13.125H89.1353C89.4829 13.125 89.8163 12.9867 90.0622 12.7406C90.308 12.4944 90.4461 12.1606 90.4461 11.8125C90.4461 11.4644 90.308 11.1306 90.0622 10.8844C89.8163 10.6383 89.4829 10.5 89.1353 10.5H83.892C83.5444 10.5 83.211 10.6383 82.9651 10.8844C82.7193 11.1306 82.5812 11.4644 82.5812 11.8125C82.5812 12.1606 82.7193 12.4944 82.9651 12.7406C83.211 12.9867 83.5444 13.125 83.892 13.125ZM83.892 34.125H89.1353C89.4829 34.125 89.8163 33.9867 90.0622 33.7406C90.308 33.4944 90.4461 33.1606 90.4461 32.8125C90.4461 32.4644 90.308 32.1306 90.0622 31.8844C89.8163 31.6383 89.4829 31.5 89.1353 31.5H83.892C83.5444 31.5 83.211 31.6383 82.9651 31.8844C82.7193 32.1306 82.5812 32.4644 82.5812 32.8125C82.5812 33.1606 82.7193 33.4944 82.9651 33.7406C83.211 33.9867 83.5444 34.125 83.892 34.125ZM83.892 44.625H89.1353C89.4829 44.625 89.8163 44.4867 90.0622 44.2406C90.308 43.9944 90.4461 43.6606 90.4461 43.3125C90.4461 42.9644 90.308 42.6306 90.0622 42.3844C89.8163 42.1383 89.4829 42 89.1353 42H83.892C83.5444 42 83.211 42.1383 82.9651 42.3844C82.7193 42.6306 82.5812 42.9644 82.5812 43.3125C82.5812 43.6606 82.7193 43.9944 82.9651 44.2406C83.211 44.4867 83.5444 44.625 83.892 44.625ZM83.892 55.125H89.1353C89.4829 55.125 89.8163 54.9867 90.0622 54.7406C90.308 54.4944 90.4461 54.1606 90.4461 53.8125C90.4461 53.4644 90.308 53.1306 90.0622 52.8844C89.8163 52.6383 89.4829 52.5 89.1353 52.5H83.892C83.5444 52.5 83.211 52.6383 82.9651 52.8844C82.7193 53.1306 82.5812 53.4644 82.5812 53.8125C82.5812 54.1606 82.7193 54.4944 82.9651 54.7406C83.211 54.9867 83.5444 55.125 83.892 55.125ZM83.892 65.625H89.1353C89.4829 65.625 89.8163 65.4867 90.0622 65.2406C90.308 64.9944 90.4461 64.6606 90.4461 64.3125C90.4461 63.9644 90.308 63.6306 90.0622 63.3844C89.8163 63.1383 89.4829 63 89.1353 63H83.892C83.5444 63 83.211 63.1383 82.9651 63.3844C82.7193 63.6306 82.5812 63.9644 82.5812 64.3125C82.5812 64.6606 82.7193 64.9944 82.9651 65.2406C83.211 65.4867 83.5444 65.625 83.892 65.625ZM89.1353 73.5H83.892C83.5444 73.5 83.211 73.6383 82.9651 73.8844C82.7193 74.1306 82.5812 74.4644 82.5812 74.8125C82.5812 75.1606 82.7193 75.4944 82.9651 75.7406C83.211 75.9867 83.5444 76.125 83.892 76.125H89.1353C89.4829 76.125 89.8163 75.9867 90.0622 75.7406C90.308 75.4944 90.4461 75.1606 90.4461 74.8125C90.4461 74.4644 90.308 74.1306 90.0622 73.8844C89.8163 73.6383 89.4829 73.5 89.1353 73.5Z" fill="#5145C0" fill-opacity="0.5"/>
</svg>
