<svg width="55" height="55" viewBox="0 0 55 55" fill="none" xmlns="http://www.w3.org/2000/svg">
<circle cx="27.5" cy="27.5" r="27.5" fill="#7367E0" fill-opacity="0.1"/>
<path d="M39.9461 33.5025L32.0579 17.4731C31.8959 17.144 31.6348 16.8741 31.3112 16.7014C30.9876 16.5287 30.618 16.462 30.2545 16.5106L25.0293 17.2223L30.4181 19.0197C30.9415 19.1918 31.397 19.5251 31.7193 19.9719C32.0416 20.4188 32.2141 20.9562 32.2121 21.5071V39.2581L39.1472 35.8472C39.5636 35.6418 39.8815 35.2795 40.0313 34.84C40.181 34.4005 40.1504 33.9195 39.9461 33.5025ZM23.0239 23.1871C23.256 23.1871 23.4785 23.0949 23.6426 22.9308C23.8067 22.7667 23.8989 22.5442 23.8989 22.3121C23.8989 22.08 23.8067 21.8575 23.6426 21.6934C23.4785 21.5293 23.256 21.4371 23.0239 21.4371C22.9238 21.4363 22.8244 21.4541 22.7308 21.4896L23.3345 21.9708C23.3801 22.0059 23.4181 22.0498 23.4464 22.0999C23.4746 22.1499 23.4926 22.2052 23.4991 22.2623C23.5056 22.3194 23.5006 22.3773 23.4844 22.4324C23.4681 22.4876 23.441 22.5389 23.4045 22.5833C23.3638 22.6349 23.312 22.6767 23.2529 22.7054C23.1938 22.7342 23.129 22.7493 23.0633 22.7496C22.9643 22.7504 22.8683 22.7163 22.792 22.6533L22.1664 22.1502C22.1539 22.2032 22.148 22.2576 22.1489 22.3121C22.1496 22.5439 22.242 22.7661 22.4059 22.9301C22.5699 23.094 22.792 23.1864 23.0239 23.1871Z" fill="#7367E0"/>
<path d="M30.1421 19.8485L23.1639 17.521C23.0746 17.4904 22.9776 17.4904 22.8883 17.521L19.2789 18.7241L21.9958 20.8985C22.2931 20.6781 22.6538 20.5599 23.0239 20.5616C23.4045 20.5602 23.7753 20.6824 24.0804 20.9099C24.3855 21.1373 24.6085 21.4578 24.7158 21.8229C24.8232 22.188 24.809 22.5781 24.6755 22.9345C24.5419 23.2909 24.2963 23.5943 23.9755 23.799C23.6546 24.0038 23.276 24.0988 22.8965 24.0697C22.517 24.0407 22.1573 23.8892 21.8713 23.638C21.5854 23.3869 21.3887 23.0497 21.311 22.6771C21.2332 22.3046 21.2786 21.9168 21.4402 21.5723L18.2946 19.0523L15.9102 19.8485C15.5609 19.9629 15.2567 20.1849 15.0414 20.4828C14.826 20.7807 14.7105 21.1391 14.7114 21.5066V39.3741C14.7121 39.8381 14.8966 40.2828 15.2247 40.6109C15.5527 40.9389 15.9975 41.1235 16.4614 41.1241H29.5864C30.0355 41.1277 30.4684 40.9568 30.794 40.6475C31.1196 40.3382 31.3125 39.9147 31.3321 39.466C31.3352 39.4355 31.3367 39.4048 31.3364 39.3741V21.5066C31.3374 21.1397 31.2224 20.7818 31.0079 20.4841C30.7934 20.1863 30.4904 19.9639 30.1421 19.8485ZM18.8239 27.7366C19.1655 27.3957 19.6148 27.1838 20.0951 27.137C20.5755 27.0902 21.0572 27.2114 21.4582 27.4799C21.8592 27.7485 22.1547 28.1477 22.2943 28.6097C22.4339 29.0717 22.4091 29.5678 22.2239 30.0135C22.0387 30.4592 21.7048 30.8269 21.2789 31.054C20.853 31.281 20.3616 31.3534 19.8884 31.2587C19.4151 31.1641 18.9893 30.9083 18.6836 30.5349C18.3778 30.1615 18.2109 29.6936 18.2114 29.211C18.2126 28.6579 18.4328 28.1277 18.8239 27.7366V27.7366ZM19.1346 36.2635C19.0769 36.2643 19.0197 36.2534 18.9663 36.2317C18.913 36.2099 18.8646 36.1775 18.8239 36.1366C18.7834 36.0962 18.7512 36.0481 18.7292 35.9952C18.7072 35.9422 18.6959 35.8855 18.6959 35.8282C18.6959 35.7709 18.7072 35.7142 18.7292 35.6612C18.7512 35.6083 18.7834 35.5602 18.8239 35.5198L26.6071 27.7366C26.6474 27.6953 26.6955 27.6624 26.7486 27.6398C26.8018 27.6172 26.8589 27.6053 26.9166 27.605C26.9744 27.6046 27.0316 27.6157 27.0851 27.6376C27.1385 27.6596 27.187 27.6919 27.2278 27.7327C27.2687 27.7736 27.301 27.8221 27.3229 27.8755C27.3449 27.9289 27.356 27.9862 27.3556 28.0439C27.3552 28.1017 27.3434 28.1588 27.3208 28.2119C27.2982 28.2651 27.2653 28.3132 27.2239 28.3535L19.4408 36.1366C19.401 36.1775 19.3534 36.2098 19.3007 36.2316C19.2481 36.2534 19.1916 36.2642 19.1346 36.2635H19.1346ZM27.2239 36.1366C26.8823 36.4776 26.4331 36.6895 25.9527 36.7363C25.4724 36.7831 24.9907 36.6619 24.5897 36.3934C24.1887 36.1248 23.8932 35.7255 23.7535 35.2636C23.6139 34.8016 23.6388 34.3055 23.824 33.8598C24.0091 33.4141 24.3431 33.0464 24.769 32.8193C25.1948 32.5923 25.6862 32.5199 26.1595 32.6145C26.6327 32.7092 27.0585 32.965 27.3643 33.3384C27.6701 33.7118 27.8369 34.1796 27.8364 34.6623C27.8377 34.9364 27.7842 35.2081 27.679 35.4613C27.5738 35.7144 27.4191 35.9441 27.2239 36.1366V36.1366Z" fill="#7367E0"/>
<path d="M25.7497 33.4463C25.509 33.4455 25.2736 33.5162 25.0732 33.6493C24.8728 33.7824 24.7163 33.972 24.6237 34.194C24.5311 34.4161 24.5064 34.6606 24.5528 34.8967C24.5993 35.1328 24.7147 35.3498 24.8845 35.5202C25.0544 35.6906 25.2709 35.8069 25.5068 35.8541C25.7428 35.9014 25.9874 35.8776 26.2098 35.7858C26.4322 35.694 26.6223 35.5382 26.7561 35.3383C26.8899 35.1383 26.9614 34.9032 26.9615 34.6626C26.9615 34.3398 26.8341 34.0301 26.6071 33.8007C26.4946 33.6881 26.3609 33.5988 26.2138 33.538C26.0666 33.4771 25.9089 33.446 25.7497 33.4463ZM21.1603 30.0732C21.3873 29.8446 21.5147 29.5356 21.5147 29.2135C21.5147 28.8913 21.3873 28.5823 21.1603 28.3538C20.9906 28.1836 20.7743 28.0677 20.5386 28.0206C20.303 27.9735 20.0587 27.9973 19.8367 28.0892C19.6147 28.181 19.4248 28.3366 19.2913 28.5364C19.1578 28.7361 19.0865 28.971 19.0865 29.2113C19.0856 29.4519 19.1563 29.6874 19.2895 29.8878C19.4227 30.0883 19.6124 30.2446 19.8347 30.3369C20.0569 30.4293 20.3015 30.4535 20.5376 30.4066C20.7736 30.3596 20.9903 30.2435 21.1603 30.0732ZM14.5846 14.9706C14.4941 14.8992 14.3789 14.8666 14.2643 14.8799C14.1497 14.8932 14.0451 14.9513 13.9733 15.0416C13.9016 15.1319 13.8685 15.247 13.8814 15.3616C13.8943 15.4762 13.9521 15.5811 14.0421 15.6531L18.2946 19.0525L19.279 18.7244L14.5846 14.9706Z" fill="#7367E0"/>
</svg>
