<svg width="50" height="65" viewBox="0 0 50 65" fill="none" xmlns="http://www.w3.org/2000/svg">
<g filter="url(#filter0_d_90_338)">
<path d="M45.4545 36.6687C45.4545 47.8979 36.1745 57 24.7279 57C13.2812 57 4 47.8979 4 36.6687C4 21.9074 12.1397 3.88556e-07 24.7279 3.88556e-07C36.9365 -0.00345349 45.4545 23.0201 45.4545 36.6687Z" fill="url(#paint0_radial_90_338)"/>
<path style="mix-blend-mode:screen" d="M18.1965 14.9144C15.2938 20.7014 11.6935 24.7914 10.156 24.0488C8.61844 23.3062 9.72569 18.0137 12.629 12.2267C15.5323 6.43974 19.1314 2.35034 20.6689 3.09293C22.2064 3.83551 21.0992 9.12744 18.1965 14.9144Z" fill="url(#paint1_linear_90_338)"/>
</g>
<defs>
<filter id="filter0_d_90_338" x="0" y="0" width="49.4545" height="65" filterUnits="userSpaceOnUse" color-interpolation-filters="sRGB">
<feFlood flood-opacity="0" result="BackgroundImageFix"/>
<feColorMatrix in="SourceAlpha" type="matrix" values="0 0 0 0 0 0 0 0 0 0 0 0 0 0 0 0 0 0 127 0" result="hardAlpha"/>
<feOffset dy="4"/>
<feGaussianBlur stdDeviation="2"/>
<feComposite in2="hardAlpha" operator="out"/>
<feColorMatrix type="matrix" values="0 0 0 0 0 0 0 0 0 0 0 0 0 0 0 0 0 0 0.25 0"/>
<feBlend mode="normal" in2="BackgroundImageFix" result="effect1_dropShadow_90_338"/>
<feBlend mode="normal" in="SourceGraphic" in2="effect1_dropShadow_90_338" result="shape"/>
</filter>
<radialGradient id="paint0_radial_90_338" cx="0" cy="0" r="1" gradientUnits="userSpaceOnUse" gradientTransform="translate(18.5938 12.6134) scale(43.3888 42.5698)">
<stop stop-color="#FFFFA6"/>
<stop offset="0.31" stop-color="#FDD551"/>
<stop offset="0.55" stop-color="#FDD551"/>
<stop offset="0.65" stop-color="#EDC54B"/>
<stop offset="0.85" stop-color="#C49A3A"/>
<stop offset="1" stop-color="#A0752B"/>
</radialGradient>
<linearGradient id="paint1_linear_90_338" x1="20.4414" y1="4.08913" x2="10.8003" y2="23.1698" gradientUnits="userSpaceOnUse">
<stop stop-color="#FEEB7E"/>
<stop offset="1"/>
</linearGradient>
</defs>
</svg>
