<svg width="48" height="48" viewBox="0 0 48 48" fill="none" xmlns="http://www.w3.org/2000/svg">
<g clip-path="url(#clip0_1529_49898)">
<path d="M0.4757 24.401C0.4757 24.401 -2.37794 40.8065 16.3727 40.0025C35.029 40.0025 37.8816 39.3231 37.8816 39.3231C37.8816 39.3231 48.5379 37.0052 47.9791 23.3717C47.4202 9.73823 34.4003 3.71113 27.2003 9.63112C20.0003 15.5511 17.8231 18.0608 15.4403 17.0712C11.1203 16.1911 2.33703 15.6045 0.4757 24.401Z" fill="url(#paint0_linear_1529_49898)"/>
<path d="M8.64062 44.408C8.64062 45.208 9.44885 45.6799 10.4459 45.6799H37.2354C38.2324 45.6799 39.0406 44.982 39.0406 44.121V43.3188C39.0406 42.4579 38.2324 41.7599 37.2354 41.7599H10.4459C9.44885 41.7599 8.64062 42.4579 8.64062 43.3188V44.408Z" fill="url(#paint1_linear_1529_49898)"/>
<path d="M29.842 32.1631L29.8428 32.1635C30.048 32.2656 30.1805 32.3599 30.2548 32.4536C30.326 32.5433 30.3439 32.632 30.3195 32.7343C30.2883 32.8648 30.2062 32.9601 30.0848 33.0139C29.9618 33.0684 29.7965 33.0804 29.6053 33.0348C29.3503 32.9739 29.1715 32.8514 29.0814 32.7016C29.0759 32.6924 29.0703 32.6831 29.0647 32.6737C29.0181 32.5959 28.9662 32.5092 28.905 32.4355C28.8358 32.3522 28.7502 32.2798 28.6388 32.2532C28.5149 32.2237 28.3862 32.2524 28.2921 32.3248C28.1964 32.3984 28.1366 32.5182 28.1601 32.66C28.2316 33.0924 28.5343 33.4402 28.9712 33.6585L28.8951 33.9774C28.84 34.2083 28.973 34.4358 29.1893 34.4875L29.2405 34.4997C29.4569 34.5513 29.6783 34.4084 29.7334 34.1776L29.813 33.8443C30.4805 33.8491 31.0443 33.4964 31.2184 32.8279L31.2187 32.8266C31.2942 32.5103 31.2718 32.2346 31.1363 31.9945C31.0022 31.7567 30.7617 31.5617 30.4169 31.394C30.4168 31.3939 30.4168 31.3939 30.4167 31.3939L30.003 31.1882C30.0029 31.1882 30.0029 31.1882 30.0028 31.1881C29.8037 31.0874 29.6773 30.9983 29.6072 30.9097C29.5408 30.8256 29.5244 30.7416 29.5491 30.638C29.5802 30.5078 29.6614 30.4159 29.777 30.3645C29.8944 30.3124 30.0489 30.3018 30.2199 30.3426C30.4281 30.3923 30.5796 30.5104 30.6578 30.6562C30.7043 30.7427 30.7579 30.8404 30.8249 30.9219C30.8922 31.004 30.9765 31.074 31.0856 31.1C31.2078 31.1292 31.3347 31.1006 31.4266 31.0287C31.5204 30.9554 31.5774 30.8364 31.5511 30.6968C31.474 30.2888 31.1881 29.9404 30.7969 29.7227L30.877 29.3872C30.9321 29.1564 30.7991 28.9289 30.5827 28.8772L30.5315 28.865C30.3152 28.8133 30.0937 28.9562 30.0386 29.1871L29.9552 29.5368C29.3375 29.5582 28.8036 29.9016 28.6568 30.5168C28.5828 30.8267 28.6083 31.1058 28.7367 31.3472C28.8644 31.5871 29.0901 31.7832 29.4049 31.9366L29.842 32.1631Z" fill="#DDECFF"/>
<circle cx="42.5611" cy="16.96" r="1.2" stroke="#3185FF" stroke-width="0.48"/>
<path d="M43.6132 28.0046C43.5367 27.8721 43.3722 27.8239 43.2458 27.8969L42.8642 28.1172L42.6335 27.7175C42.557 27.5851 42.3925 27.5369 42.2661 27.6099C42.1397 27.6829 42.0992 27.8494 42.1756 27.9818L42.4064 28.3816L42.0249 28.6018C41.8984 28.6748 41.8579 28.8414 41.9344 28.9738C42.0109 29.1063 42.1754 29.1545 42.3018 29.0815L42.6833 28.8612L42.9141 29.2609C42.9906 29.3934 43.155 29.4415 43.2815 29.3686C43.4079 29.2956 43.4484 29.129 43.3719 28.9966L43.1412 28.5969L43.5227 28.3766C43.6491 28.3036 43.6896 28.137 43.6132 28.0046Z" fill="#3F9DF3"/>
<path d="M4.9959 26.9227C4.83295 26.879 4.66799 26.9663 4.62744 27.1176L4.50509 27.5742L4.01335 27.4425C3.8504 27.3988 3.68543 27.4861 3.64489 27.6374C3.60435 27.7887 3.70358 27.9467 3.86653 27.9904L4.35827 28.1222L4.23592 28.5788C4.19538 28.7301 4.29461 28.8882 4.45756 28.9318C4.62051 28.9755 4.78547 28.8882 4.82601 28.7369L4.94836 28.2803L5.44011 28.412C5.60306 28.4557 5.76802 28.3684 5.80856 28.2171C5.84911 28.0658 5.74988 27.9078 5.58693 27.8641L5.09518 27.7323L5.21754 27.2757C5.25808 27.1244 5.15885 26.9664 4.9959 26.9227Z" fill="#3F9DF3"/>
<path d="M37.8285 6.62988H9.31641V42.0001C9.31641 43.1047 10.2118 44.0001 11.3164 44.0001H35.8285C36.9331 44.0001 37.8285 43.1047 37.8285 42.0001V6.62988Z" fill="url(#paint2_linear_1529_49898)"/>
<path d="M17.8685 9.53638H12.8789C12.3266 9.53638 11.8789 9.98409 11.8789 10.5364V15.0416C11.8789 15.5939 12.3266 16.0416 12.8789 16.0416H17.8685C18.4208 16.0416 18.8685 15.5939 18.8685 15.0416V10.5364C18.8685 9.98409 18.4208 9.53638 17.8685 9.53638Z" fill="url(#paint3_linear_1529_49898)"/>
<path d="M26.1029 9.53638H21.1133C20.561 9.53638 20.1133 9.98409 20.1133 10.5364V15.0416C20.1133 15.5939 20.561 16.0416 21.1133 16.0416H26.1029C26.6552 16.0416 27.1029 15.5939 27.1029 15.0416V10.5364C27.1029 9.98409 26.6552 9.53638 26.1029 9.53638Z" fill="#CCE1FF"/>
<path d="M34.4076 9.53638H29.418C28.8657 9.53638 28.418 9.98409 28.418 10.5364V15.0416C28.418 15.5939 28.8657 16.0416 29.418 16.0416H34.4076C34.9599 16.0416 35.4076 15.5939 35.4076 15.0416V10.5364C35.4076 9.98409 34.9599 9.53638 34.4076 9.53638Z" fill="#CCE1FF"/>
<path d="M34 17H13C12.4477 17 12 17.4477 12 18V23C12 23.5523 12.4477 24 13 24H34C34.5523 24 35 23.5523 35 23V18C35 17.4477 34.5523 17 34 17Z" fill="url(#paint4_linear_1529_49898)"/>
<path d="M17.8685 25.384H12.8789C12.3266 25.384 11.8789 25.8317 11.8789 26.384V30.8892C11.8789 31.4415 12.3266 31.8892 12.8789 31.8892H17.8685C18.4208 31.8892 18.8685 31.4415 18.8685 30.8892V26.384C18.8685 25.8317 18.4208 25.384 17.8685 25.384Z" fill="#CCE1FF"/>
<path d="M26.1029 25.384H21.1133C20.561 25.384 20.1133 25.8317 20.1133 26.384V30.8892C20.1133 31.4415 20.561 31.8892 21.1133 31.8892H26.1029C26.6552 31.8892 27.1029 31.4415 27.1029 30.8892V26.384C27.1029 25.8317 26.6552 25.384 26.1029 25.384Z" fill="#CCE1FF"/>
<path d="M34.4076 25.384H29.418C28.8657 25.384 28.418 25.8317 28.418 26.384V30.8892C28.418 31.4415 28.8657 31.8892 29.418 31.8892H34.4076C34.9599 31.8892 35.4076 31.4415 35.4076 30.8892V26.384C35.4076 25.8317 34.9599 25.384 34.4076 25.384Z" fill="#CCE1FF"/>
<path d="M17.8685 33.3425H12.8789C12.3266 33.3425 11.8789 33.7902 11.8789 34.3425V38.8477C11.8789 39.4 12.3266 39.8477 12.8789 39.8477H17.8685C18.4208 39.8477 18.8685 39.4 18.8685 38.8477V34.3425C18.8685 33.7902 18.4208 33.3425 17.8685 33.3425Z" fill="#CCE1FF"/>
<path d="M34.4076 33.3425H29.418C28.8657 33.3425 28.418 33.7902 28.418 34.3425V38.8477C28.418 39.4 28.8657 39.8477 29.418 39.8477H34.4076C34.9599 39.8477 35.4076 39.4 35.4076 38.8477V34.3425C35.4076 33.7902 34.9599 33.3425 34.4076 33.3425Z" fill="#CCE1FF"/>
<path d="M38.0727 4H9C8.44772 4 8 4.44771 8 5V6.62976H39.0727V5C39.0727 4.44772 38.625 4 38.0727 4Z" fill="#003E99"/>
<path d="M29.1067 35.3494H17.9648V43.9307H29.1067V35.3494Z" fill="#0053CC"/>
<path d="M32 29H15C14.4477 29 14 29.4477 14 30V35C14 35.5523 14.4477 36 15 36H32C32.5523 36 33 35.5523 33 35V30C33 29.4477 32.5523 29 32 29Z" fill="#0053CC"/>
<path d="M26.0326 36.5952H21.043C20.4907 36.5952 20.043 37.0429 20.043 37.5952V44.0001H27.0326V37.5952C27.0326 37.0429 26.5849 36.5952 26.0326 36.5952Z" fill="#CCE1FF"/>
</g>
<defs>
<linearGradient id="paint0_linear_1529_49898" x1="0.320313" y1="34.5911" x2="52.0556" y2="41.705" gradientUnits="userSpaceOnUse">
<stop stop-color="#DCEAFF"/>
<stop offset="0.864583" stop-color="#E8F1FF"/>
</linearGradient>
<linearGradient id="paint1_linear_1529_49898" x1="23.8406" y1="48.3999" x2="23.8406" y2="40.0799" gradientUnits="userSpaceOnUse">
<stop offset="0.560496" stop-color="#EEF5FF" stop-opacity="0"/>
<stop offset="0.846187" stop-color="#C8E0FF"/>
</linearGradient>
<linearGradient id="paint2_linear_1529_49898" x1="24" y1="43.0001" x2="7.74823" y2="12.7238" gradientUnits="userSpaceOnUse">
<stop stop-color="#4390FF"/>
<stop offset="1" stop-color="#87B3F4"/>
</linearGradient>
<linearGradient id="paint3_linear_1529_49898" x1="18.5" y1="13" x2="12" y2="13" gradientUnits="userSpaceOnUse">
<stop stop-color="#9AEAC9"/>
<stop offset="1" stop-color="#5CF8B7"/>
</linearGradient>
<linearGradient id="paint4_linear_1529_49898" x1="35.3041" y1="20.2338" x2="12.2699" y2="20.2338" gradientUnits="userSpaceOnUse">
<stop stop-color="#FAA828"/>
<stop offset="1" stop-color="#FFC771"/>
</linearGradient>
<clipPath id="clip0_1529_49898">
<rect width="48" height="48" fill="white"/>
</clipPath>
</defs>
</svg>
